<svg width="724" height="1024" viewBox="0 0 724 1024" fill="none" xmlns="http://www.w3.org/2000/svg">
<g filter="url(#filter0_d)">
<path d="M0 0H720V1024H0V0Z" fill="#685BB5"/>
</g>
<path d="M559.029 125.347C558.296 125.411 557.502 125.647 556.647 126.055C555.804 126.453 555.032 126.947 554.332 127.537L554.139 125.334C555.429 124.152 557.068 123.475 559.059 123.3C559.999 123.218 560.861 123.211 561.647 123.28C562.447 123.347 563.478 123.512 564.741 123.774C565.677 123.966 566.489 124.101 567.179 124.178C567.867 124.245 568.536 124.251 569.186 124.194C569.932 124.128 570.734 123.901 571.591 123.513C572.448 123.124 573.226 122.62 573.924 122L574.115 124.189C572.799 125.382 571.16 126.065 569.197 126.237C568.202 126.324 567.262 126.327 566.378 126.248C565.493 126.159 564.539 126.002 563.516 125.778C562.453 125.557 561.604 125.416 560.972 125.353C560.34 125.291 559.692 125.289 559.029 125.347Z" fill="#D7B4A8"/>
<path d="M579.029 109.347C578.296 109.411 577.502 109.647 576.647 110.055C575.804 110.453 575.032 110.947 574.332 111.537L574.139 109.334C575.429 108.152 577.068 107.475 579.059 107.3C579.999 107.218 580.861 107.211 581.647 107.28C582.447 107.347 583.478 107.512 584.741 107.774C585.677 107.966 586.489 108.101 587.179 108.178C587.867 108.245 588.536 108.251 589.186 108.194C589.932 108.128 590.734 107.901 591.591 107.513C592.448 107.124 593.226 106.62 593.924 106L594.115 108.189C592.799 109.382 591.16 110.065 589.197 110.237C588.202 110.324 587.262 110.327 586.378 110.248C585.493 110.159 584.539 110.002 583.516 109.778C582.453 109.557 581.604 109.416 580.972 109.353C580.34 109.291 579.692 109.289 579.029 109.347Z" fill="#A7A0BD"/>
<path fill-rule="evenodd" clip-rule="evenodd" d="M543.537 870.169L559.202 919.713L594.276 881.375L543.537 870.169ZM545.013 871.519L559.633 917.76L592.369 881.978L545.013 871.519Z" fill="#696969"/>
<path d="M122 651C122 653.209 120.209 655 118 655C115.791 655 114 653.209 114 651C114 648.791 115.791 647 118 647C120.209 647 122 648.791 122 651Z" fill="#D7B4A8"/>
<path fill-rule="evenodd" clip-rule="evenodd" d="M353 188C356.314 188 359 185.314 359 182C359 178.686 356.314 176 353 176C349.686 176 347 178.686 347 182C347 185.314 349.686 188 353 188ZM353 189C356.866 189 360 185.866 360 182C360 178.134 356.866 175 353 175C349.134 175 346 178.134 346 182C346 185.866 349.134 189 353 189Z" fill="#D7B4A8"/>
<path fill-rule="evenodd" clip-rule="evenodd" d="M124 354C126.761 354 129 351.761 129 349C129 346.239 126.761 344 124 344C121.239 344 119 346.239 119 349C119 351.761 121.239 354 124 354ZM124 355C127.314 355 130 352.314 130 349C130 345.686 127.314 343 124 343C120.686 343 118 345.686 118 349C118 352.314 120.686 355 124 355Z" fill="#A7A0BD"/>
<path d="M-73 -64.5394L146.065 -185L266.525 34.0646L47.4605 154.525L-73 -64.5394Z" fill="white" fill-opacity="0.2"/>
<path d="M589.985 335.349C590.458 334.052 591.471 333.23 592.25 333.513C593.028 333.796 593.277 335.078 592.804 336.375L587.674 350.471C587.202 351.768 586.188 352.59 585.41 352.307C584.631 352.023 584.383 350.742 584.855 349.445L589.985 335.349Z" fill="#D7B4A8"/>
<path d="M582.985 299.349C583.458 298.052 584.471 297.23 585.25 297.513C586.028 297.796 586.277 299.078 585.804 300.375L580.674 314.471C580.202 315.768 579.188 316.59 578.41 316.307C577.631 316.023 577.383 314.742 577.855 313.445L582.985 299.349Z" fill="#393738"/>
<path fill-rule="evenodd" clip-rule="evenodd" d="M347.401 773L344.018 771.674L345.976 774.735L343.67 777.542L347.185 776.626L349.142 779.687L349.358 776.06L352.873 775.145L349.491 773.819L349.706 770.193L347.401 773ZM349.116 771.699L347.556 773.598L345.269 772.702L346.592 774.772L345.033 776.67L347.411 776.051L348.734 778.121L348.88 775.668L351.258 775.049L348.97 774.152L349.116 771.699Z" fill="#FBF0EE"/>
<defs>
<filter id="filter0_d" x="-4" y="0" width="728" height="1032" filterUnits="userSpaceOnUse" color-interpolation-filters="sRGB">
<feFlood flood-opacity="0" result="BackgroundImageFix"/>
<feColorMatrix in="SourceAlpha" type="matrix" values="0 0 0 0 0 0 0 0 0 0 0 0 0 0 0 0 0 0 127 0"/>
<feOffset dy="4"/>
<feGaussianBlur stdDeviation="2"/>
<feColorMatrix type="matrix" values="0 0 0 0 0 0 0 0 0 0 0 0 0 0 0 0 0 0 0.25 0"/>
<feBlend mode="normal" in2="BackgroundImageFix" result="effect1_dropShadow"/>
<feBlend mode="normal" in="SourceGraphic" in2="effect1_dropShadow" result="shape"/>
</filter>
</defs>
</svg>
