<svg width="411" height="208" viewBox="0 0 411 208" fill="none" xmlns="http://www.w3.org/2000/svg">
<g filter="url(#filter0_d)">
<path d="M0 0H411V200H0V0Z" fill="#685BB5"/>
</g>
<path d="M360.053 20.7738C359.537 20.8189 358.983 21.0341 358.389 21.4193C357.804 21.794 357.272 22.267 356.793 22.8383L356.6 20.6348C357.48 19.4892 358.62 18.8552 360.021 18.7326C360.683 18.6748 361.292 18.6901 361.849 18.7786C362.415 18.8663 363.147 19.0571 364.046 19.3511C364.712 19.5673 365.289 19.7226 365.777 19.8171C366.265 19.9019 366.738 19.9243 367.195 19.8843C367.72 19.8383 368.281 19.6324 368.876 19.2667C369.471 18.9009 370.007 18.4177 370.484 17.8173L370.676 20.0062C369.777 21.1631 368.637 21.802 367.256 21.9229C366.555 21.9842 365.892 21.9638 365.265 21.8617C364.638 21.75 363.96 21.5691 363.233 21.3191C362.476 21.0716 361.873 20.9086 361.425 20.8302C360.977 20.7517 360.52 20.7329 360.053 20.7738Z" fill="#D7B4A8"/>
<path d="M357.053 25.7738C356.537 25.8189 355.983 26.0341 355.389 26.4193C354.804 26.794 354.272 27.267 353.793 27.8383L353.6 25.6348C354.48 24.4892 355.62 23.8552 357.021 23.7326C357.683 23.6748 358.292 23.6901 358.849 23.7786C359.415 23.8663 360.147 24.0571 361.046 24.3511C361.712 24.5673 362.289 24.7226 362.777 24.8171C363.265 24.9019 363.738 24.9243 364.195 24.8843C364.72 24.8383 365.281 24.6324 365.876 24.2667C366.471 23.9009 367.007 23.4177 367.484 22.8173L367.676 25.0062C366.777 26.1631 365.637 26.802 364.256 26.9229C363.555 26.9842 362.892 26.9638 362.265 26.8617C361.638 26.75 360.96 26.5691 360.233 26.3191C359.476 26.0716 358.873 25.9086 358.425 25.8302C357.977 25.7517 357.52 25.7329 357.053 25.7738Z" fill="#A7A0BD"/>
<path fill-rule="evenodd" clip-rule="evenodd" d="M312.25 138.135L327.915 187.679L362.989 149.34L312.25 138.135ZM313.725 139.485L328.346 185.726L361.082 149.943L313.725 139.485Z" fill="#696969"/>
<path d="M56 136C56 138.209 54.2091 140 52 140C49.7909 140 48 138.209 48 136C48 133.791 49.7909 132 52 132C54.2091 132 56 133.791 56 136Z" fill="#D7B4A8"/>
<path fill-rule="evenodd" clip-rule="evenodd" d="M100 65C103.314 65 106 62.3137 106 59C106 55.6863 103.314 53 100 53C96.6863 53 94 55.6863 94 59C94 62.3137 96.6863 65 100 65ZM100 66C103.866 66 107 62.866 107 59C107 55.134 103.866 52 100 52C96.134 52 93 55.134 93 59C93 62.866 96.134 66 100 66Z" fill="#D7B4A8"/>
<path fill-rule="evenodd" clip-rule="evenodd" d="M231 70C233.761 70 236 67.7614 236 65C236 62.2386 233.761 60 231 60C228.239 60 226 62.2386 226 65C226 67.7614 228.239 70 231 70ZM231 71C234.314 71 237 68.3137 237 65C237 61.6863 234.314 59 231 59C227.686 59 225 61.6863 225 65C225 68.3137 227.686 71 231 71Z" fill="#A7A0BD"/>
<path d="M-30 -28.8158L57.6258 -77L105.81 10.6258L18.1842 58.81L-30 -28.8158Z" fill="white" fill-opacity="0.2"/>
<path d="M374.591 93.4095C374.875 92.6311 375.735 92.2297 376.514 92.513C377.292 92.7964 377.694 93.6571 377.41 94.4356L374.332 102.893C374.049 103.671 373.188 104.073 372.41 103.789C371.631 103.506 371.23 102.645 371.513 101.867L374.591 93.4095Z" fill="#D7B4A8"/>
<path d="M373.591 77.4095C373.875 76.6311 374.735 76.2297 375.514 76.513C376.292 76.7964 376.694 77.6571 376.41 78.4356L373.332 86.8928C373.049 87.6713 372.188 88.0727 371.41 87.7893C370.631 87.506 370.23 86.6452 370.513 85.8668L373.591 77.4095Z" fill="#393738"/>
<path fill-rule="evenodd" clip-rule="evenodd" d="M194.401 152L191.018 150.675L192.976 153.735L190.67 156.542L194.185 155.626L196.142 158.687L196.358 155.06L199.873 154.145L196.491 152.819L196.706 149.193L194.401 152ZM196.116 150.699L194.556 152.598L192.269 151.702L193.592 153.772L192.033 155.67L194.411 155.051L195.734 157.121L195.88 154.668L198.258 154.049L195.97 153.152L196.116 150.699Z" fill="#FBF0EE"/>
<defs>
<filter id="filter0_d" x="-4" y="0" width="419" height="208" filterUnits="userSpaceOnUse" color-interpolation-filters="sRGB">
<feFlood flood-opacity="0" result="BackgroundImageFix"/>
<feColorMatrix in="SourceAlpha" type="matrix" values="0 0 0 0 0 0 0 0 0 0 0 0 0 0 0 0 0 0 127 0"/>
<feOffset dy="4"/>
<feGaussianBlur stdDeviation="2"/>
<feColorMatrix type="matrix" values="0 0 0 0 0 0 0 0 0 0 0 0 0 0 0 0 0 0 0.25 0"/>
<feBlend mode="normal" in2="BackgroundImageFix" result="effect1_dropShadow"/>
<feBlend mode="normal" in="SourceGraphic" in2="effect1_dropShadow" result="shape"/>
</filter>
</defs>
</svg>
